<?xml version="1.0" encoding="utf-8"?>
<!-- Generator: Adobe Illustrator 22.0.1, SVG Export Plug-In . SVG Version: 6.00 Build 0)  -->
<svg version="1.1" id="Layer_1" xmlns="http://www.w3.org/2000/svg" xmlns:xlink="http://www.w3.org/1999/xlink" x="0px" y="0px"
	 viewBox="0 0 512 512" style="enable-background:new 0 0 512 512;" xml:space="preserve">
<style type="text/css">
	.st0{fill:#FFFFFF;}
</style>
<path class="st0" d="M426.8,481.6V450c12.1-5.7,20.5-17.9,20.5-32.2c0-19.6-15.9-35.5-35.5-35.5s-35.5,15.9-35.5,35.5
	c0,14.2,8.4,26.5,20.5,32.2v31.6c-28.9-6.8-50.5-32.8-50.5-63.7c0-36.1,29.4-65.5,65.5-65.5c5.1,0,10.1,0.6,14.9,1.7V102.2H319.2
	v379.7h-30V42.7h-24.4V0H59.4v42.7H35V512l441.7-0.2v-30h-49.9L426.8,481.6L426.8,481.6z M388,315.8h-30v-42.7h30V315.8z M388,230.5
	h-30v-42.7h30V230.5z M214.3,273.2v42.7h-30v-42.7H214.3z M184.3,230.5v-42.7h30v42.7H184.3z M214.3,358.5v42.7h-30v-42.7H214.3z
	 M214.3,145.2h-30v-42.7h30V145.2z M109.7,102.5h30v42.7h-30V102.5z M109.7,187.8h30v42.7h-30V187.8z M109.7,273.2h30v42.7h-30
	V273.2z M109.7,358.5h30v42.7h-30V358.5z"/>
</svg>
