<?xml version="1.0" encoding="utf-8"?>
<!-- Generator: Adobe Illustrator 22.0.1, SVG Export Plug-In . SVG Version: 6.00 Build 0)  -->
<svg version="1.1" id="Layer_1" xmlns="http://www.w3.org/2000/svg" xmlns:xlink="http://www.w3.org/1999/xlink" x="0px" y="0px"
	 viewBox="0 0 512 512" style="enable-background:new 0 0 512 512;" xml:space="preserve">
<style type="text/css">
	.st0{fill:#FFFFFF;}
</style>
<path class="st0" d="M376,387.2H117v92.5c0,0.5,0,0.9,0,1.4h259c0-0.5,0-0.9,0-1.4V387.2z"/>
<path class="st0" d="M25.9,178.3h273.4c8.3,0,15-6.7,15-15V62.2c0-8.3-6.7-15-15-15H25.9c-8.3,0-15,6.7-15,15v101.1
	C10.9,171.6,17.6,178.3,25.9,178.3z"/>
<path class="st0" d="M450.4,246v47.3h8.5V171.8H497c4.6,0,8.9-2.1,11.8-5.7c2.8-3.6,3.9-8.3,2.8-12.8l-22.9-94.6
	c-1.6-6.7-7.6-11.5-14.6-11.5h-60.3c-6.9,0-12.9,4.7-14.6,11.5l-22.9,94.6c-1.1,4.5-0.1,9.2,2.8,12.8c2.8,3.6,7.2,5.7,11.8,5.7H429
	v35.9C441.9,215.6,450.4,229.8,450.4,246z"/>
<path class="st0" d="M376,357.3v-22.7c0-22.8,18.5-41.3,41.3-41.3h3.2V246c0-8.3-6.7-15-15-15H87.4c-8.3,0-15,6.7-15,15v47.3h3.2
	c22.8,0,41.3,18.5,41.3,41.3v22.7H376z"/>
<path class="st0" d="M87,334.6c0-6.3-5.1-11.3-11.3-11.3H22.2c-6.3,0-11.3,5.1-11.3,11.3v145.2c0,6.3,5.1,11.3,11.3,11.3h53.4
	c6.3,0,11.3-5.1,11.3-11.3L87,334.6L87,334.6z"/>
<path class="st0" d="M482.1,479.7V334.6c0-6.3-5.1-11.3-11.4-11.3h-53.4c-6.3,0-11.3,5.1-11.3,11.3v145.2c0,6.3,5.1,11.3,11.3,11.3
	h53.4C477,491.1,482.1,486,482.1,479.7z"/>
</svg>
