<?xml version="1.0" encoding="utf-8"?>
<!-- Generator: Adobe Illustrator 22.0.1, SVG Export Plug-In . SVG Version: 6.00 Build 0)  -->
<svg version="1.1" id="Слой_1" xmlns="http://www.w3.org/2000/svg" xmlns:xlink="http://www.w3.org/1999/xlink" x="0px" y="0px"
	 viewBox="0 0 564.2 163.5" style="enable-background:new 0 0 564.2 163.5;" xml:space="preserve">
<style type="text/css">
	.st0{fill:#fff;}
	.st1{fill:none;stroke:#fff;stroke-width:8;stroke-miterlimit:10;}
</style>
<g>
	<path class="st0" d="M207.6,31.6v-3h39.5v3h-1.7c-1.8,0-2.9,0.3-3.5,1c-0.6,0.6-0.8,1.9-0.8,3.9V70c0,2.2,0.3,3.6,0.8,4.1
		c0.5,0.5,1.9,0.7,4.1,0.7h1.1l4.3,12l-3.1,1.2c-1.1-3-2.5-5.2-4.2-6.8s-3.4-2.5-4.9-2.8s-4-0.5-7.7-0.5h-20.3
		c-3.8,0-6.6,0.3-8.3,0.8c-1.7,0.5-3.3,1.6-4.8,3.1c-1.5,1.6-2.7,3.6-3.7,6.2l-3.1-1.2l4.3-12c2,0,3.4-0.3,4.3-0.6
		c0.9-0.4,1.7-1,2.4-1.8c0.7-0.8,1.2-1.8,1.6-3.1l9.7-31.7c0.4-1.1,0.5-2,0.5-2.7c0-2.2-1.6-3.2-4.7-3.2H207.6z M234.5,32.4h-14.8
		L208.1,70c-0.3,1-0.5,1.6-0.5,1.9c0,0.8,0.3,1.3,0.9,1.5c0.6,0.3,1.8,0.4,3.5,0.4h17.6c1.8,0,2.9-0.1,3.5-0.3
		c0.5-0.2,0.9-0.6,1.1-1c0.2-0.5,0.2-1.7,0.2-3.8V32.4z"/>
	<path class="st0" d="M254.4,28.7h39.9l4.6,12.9l-3.1,1.2c-0.8-2.1-1.6-3.8-2.5-5c-0.9-1.2-2-2.2-3.3-3.1s-2.6-1.4-3.9-1.7
		c-1.3-0.3-3.7-0.4-7.1-0.4h-11.9v18h5.9c2.2,0,3.8-0.4,5-1.1s1.9-1.7,2.3-2.8c0.3-0.8,0.5-2.3,0.5-4.3v-0.8h3.4v21.5h-3.4v-1.9
		c0-1.6-0.1-2.8-0.4-3.6c-0.2-0.7-0.7-1.4-1.4-2.1c-0.7-0.6-1.4-1.1-2.1-1.3c-0.8-0.2-2.1-0.4-3.9-0.4h-5.9v15.9
		c0,1.7,0.1,2.7,0.2,3c0.2,0.4,0.4,0.6,0.8,0.8c0.4,0.2,1.3,0.2,2.9,0.2h7.4c4.1,0,7.3-0.5,9.6-1.5c2.3-1,4.3-2.5,6.1-4.5
		c1.4-1.6,2.7-3.8,4-6.7l3.2,1.1l-5.5,15.4h-41.4v-3h1.4c1.6,0,2.7-0.1,3.1-0.3c0.6-0.3,1.1-0.8,1.4-1.5c0.2-0.5,0.4-1.5,0.4-3V36.1
		c0-1.5-0.2-2.6-0.5-3.1c-0.3-0.5-0.8-0.9-1.6-1.2c-0.4-0.2-1.8-0.2-4.2-0.2V28.7z"/>
	<path class="st0" d="M306.2,28.7h15.5l14.5,38.8l14.1-38.8h14.9v3H364c-1.5,0-2.5,0.1-3.1,0.4c-0.5,0.3-0.9,0.7-1.2,1.4
		s-0.5,1.7-0.5,3.2v32.3c0,2,0.1,3.4,0.4,4c0.2,0.6,0.7,1.1,1.2,1.4s1.6,0.5,3.2,0.5h1.3v3h-18.7v-3h1.3c1.2,0,2.1-0.1,2.6-0.3
		c0.6-0.2,1-0.5,1.4-0.9c0.4-0.4,0.6-0.9,0.6-1.4c0.1-1,0.2-1.7,0.2-2.3V33.8l-16,43.9h-3.5L317,34.5v34.7c0,1.8,0.2,3,0.5,3.6
		c0.3,0.6,0.8,1.1,1.4,1.5c0.6,0.3,1.8,0.5,3.5,0.5h1.1v3h-17.3v-3h1c1.7,0,2.9-0.2,3.6-0.5c0.7-0.4,1.2-0.8,1.5-1.5
		c0.3-0.6,0.5-1.9,0.5-3.8v-32c0-1.8-0.1-3-0.4-3.6c-0.3-0.6-0.7-1-1.3-1.3c-0.6-0.3-1.7-0.4-3.2-0.4h-1.7V28.7z"/>
	<path class="st0" d="M372.4,28.7h18.9v3H390c-2.1,0-3.4,0.3-4,1c-0.6,0.6-0.9,2-0.9,4.2v27.8l25.4-27.5c0-1.8-0.1-3-0.2-3.6
		c-0.2-0.6-0.5-1-1.2-1.4c-0.6-0.4-1.6-0.6-2.8-0.6h-1.9v-3h18.7v3h-1.7c-1.8,0-2.9,0.3-3.5,1c-0.6,0.6-0.8,1.9-0.8,3.9V70
		c0,2.2,0.3,3.6,0.8,4.1c0.5,0.5,1.9,0.7,4.1,0.7h1.1v3h-18.7v-3h1.3c1.7,0,2.9-0.1,3.4-0.3s0.9-0.6,1.1-1c0.2-0.5,0.2-1.8,0.2-3.9
		V42.6l-25.4,27.3c0,2.2,0.3,3.6,0.8,4.1c0.5,0.5,1.9,0.7,4.1,0.7h1.3v3h-18.9v-3h1.2c2.1,0,3.4-0.2,4-0.7c0.6-0.4,0.9-1.7,0.9-3.8
		V36.5c0-2-0.3-3.4-0.8-4c-0.6-0.6-1.7-0.9-3.3-0.9h-2V28.7z"/>
	<path class="st0" d="M475.3,31.6h-0.7c-1.6,0-2.8,0.3-3.6,0.9c-0.8,0.6-1.4,1.5-1.9,2.7l-16.5,35.5c-1.7,3.6-3.3,5.8-5,6.6
		c-1.7,0.8-3.5,1.2-5.5,1.2c-2.2,0-4.1-0.5-5.7-1.5s-2.3-2.3-2.3-3.8c0-0.9,0.3-1.6,0.9-2.2s1.3-0.9,2.3-0.9c0.6,0,1.1,0.1,1.5,0.4
		c0.4,0.3,1.1,1,2.1,2.1c1,1.1,2.1,1.7,3.1,1.7c1,0,1.9-0.3,2.6-1c0.8-0.7,1.7-2.2,2.8-4.7l2.3-5l-17.6-28c-1.2-1.9-2-3-2.6-3.3
		c-0.6-0.4-1.8-0.6-3.8-0.7v-3H446v3h-2.1c-1.9,0-2.9,0.5-2.9,1.5c0,0.8,0.3,1.7,1,2.7l12.9,20.6l9.6-20.8c0.5-1.2,0.8-2,0.8-2.7
		c0-0.5-0.2-0.9-0.6-1.1c-0.4-0.2-1.2-0.3-2.4-0.3h-1.8v-3h14.7V31.6z"/>
	<path class="st0" d="M477.4,28.7h19.4c5.9,0,9.9,0.4,12.2,1.1c2.8,0.9,5.1,2.4,6.9,4.6c1.8,2.2,2.7,4.9,2.7,8.2
		c0,2.8-0.7,5.3-2.1,7.3c-1.7,2.5-3.7,4.2-6.1,5.3c-2.4,1-6.1,1.6-11.2,1.6h-9v12.6c0,1.9,0.1,3.1,0.3,3.6c0.3,0.7,0.7,1.2,1.2,1.4
		c0.5,0.3,1.5,0.4,3,0.4h1.7v3h-19v-3h1.2c1.6,0,2.7-0.1,3.3-0.4c0.6-0.3,1-0.7,1.3-1.3c0.3-0.6,0.4-1.7,0.4-3.3V36.3
		c0-1.6-0.1-2.6-0.4-3.1c-0.2-0.5-0.7-0.9-1.2-1.2c-0.6-0.2-1.7-0.4-3.4-0.4h-1.2V28.7z M490.2,32.5v20.6h7.6c3.8,0,6.5-0.3,8-1
		c1.5-0.7,2.8-1.9,3.8-3.5c1-1.7,1.5-3.6,1.5-5.9c0-2.5-0.6-4.5-1.8-6.2s-2.8-2.8-4.8-3.4c-1.4-0.4-4.2-0.6-8.2-0.6H490.2z"/>
	<path class="st0" d="M522.7,28.7h34.4l4.5,12.9l-3.1,1.2c-1.8-4.1-3.7-6.8-5.7-8.1s-5.4-2-10.1-2h-7.5v37.6c0,1.9,0.3,3.1,1,3.7
		c0.7,0.6,1.9,0.9,3.8,0.9h1.3v3h-18.7v-3h1.2c2,0,3.3-0.3,3.9-0.9s0.9-2,0.9-4.1V36.4c0-2.1-0.3-3.4-1-4c-0.6-0.5-1.8-0.8-3.4-0.8
		h-1.7V28.7z"/>
</g>
<path class="st0" d="M62,31c0,0,2.6-6.1,8.9-4.3c6.3,1.8,6.5,6.6,5.2,10.4c-1.3,3.7-7.9,8.5-13.8,5.7c-5.9-2.8-7.9-12.3-5-19.6
	c3-7.5,14.3-16.6,27.9-12.8c13.6,3.8,17.2,18.7,16.7,24.8c-0.5,6.1-3.9,19.4-11.9,28.4c-8,9-12.7,14.4-17.5,17.8
	c-4.8,3.3-17.4-0.8-17.4-0.8s10.6-6.3,16-11.6c5.8-5.6,11.3-11.5,12.3-15.6c1-4-2.2-5.3-4-4.9c-1.9,0.4,0.2-4.6,3.8-4.8
	c3.7-0.2,4.4,1,5.5-2.2c1.4-4,4.6-14-3.9-19.5c-8.5-5.5-15,1.7-15.7,4"/>
<path class="st0" d="M135.1,89.8c0,0,3.9,5.4-0.9,9.9c-4.8,4.4-9,2.1-11.5-0.9c-2.5-3-3.3-11.1,2.2-14.8c5.5-3.6,14.6-0.4,19.3,5.8
	c4.9,6.4,6.9,20.8-3.4,30.5c-10.3,9.8-24.9,5.2-29.9,1.6c-5-3.6-14.6-13.3-18.2-24.8C89.2,85.7,87,78.9,86.6,73
	c-0.4-5.8,9.6-14.5,9.6-14.5s0,12.3,1.7,19.6c1.9,7.9,4.1,15.6,7,18.6c2.9,2.9,5.7,0.9,6.2-0.9c0.6-1.8,3.9,2.5,2.1,5.8
	c-1.7,3.2-3.1,3.3-1,5.8c2.7,3.2,9.7,11.1,18.7,6.7c9.1-4.4,6.3-13.7,4.6-15.5"/>
<path class="st0" d="M47.7,123.1c0,0-6.6,0.7-8.1-5.7c-1.5-6.3,2.6-8.9,6.5-9.6c3.8-0.7,11.3,2.7,11.7,9.3
	c0.4,6.5-6.9,12.9-14.7,13.9c-8,1.1-21.5-4.4-24.8-18.1c-3.4-13.8,7.9-24.2,13.5-26.7c5.6-2.5,18.8-6,30.6-3.4
	c11.7,2.6,18.8,4.1,24.1,6.6c5.3,2.6,7.8,15.5,7.8,15.5s-10.7-6.2-17.9-8.3c-7.8-2.3-15.6-4.3-19.6-3.2c-4,1.1-3.6,4.5-2.3,5.9
	c1.3,1.4-4.1,2.1-6.1-1c-2-3.1-1.3-4.3-4.6-3.7c-4.2,0.8-14.5,2.9-15.1,12.9c-0.7,10.1,8.8,12.3,11.2,11.7"/>
<path class="st1" d="M158.1,67.6c7.8,42.2-20.1,82.7-62.3,90.5c-42.2,7.8-82.7-20.1-90.5-62.3C-2.5,53.6,25.4,13.1,67.6,5.3
	C109.8-2.5,150.4,25.4,158.1,67.6z"/>
<g>
	<path class="st0" d="M196,105.8v-1.1h0.6c0.6,0,1.1-0.1,1.3-0.4s0.3-0.8,0.3-1.6v-6.1c0-0.8,0-1.3-0.1-1.5
		c-0.1-0.2-0.2-0.4-0.4-0.5c-0.2-0.1-0.7-0.2-1.3-0.2H196v-1.1h6.4v1.1H202c-0.6,0-1,0-1.2,0.1c-0.2,0.1-0.3,0.3-0.4,0.5
		c-0.1,0.2-0.1,0.7-0.1,1.3v3.3l4.7-3.7c0.7-0.6,1.1-1,1.1-1.2c0-0.2-0.3-0.3-1-0.3h-0.7v-1.1h6.4v1.1c-0.7,0-1.3,0.1-1.7,0.2
		s-0.9,0.4-1.5,0.9l-3.7,2.8l4.4,4.8c0.6,0.7,1.1,1.1,1.5,1.2s0.9,0.2,1.6,0.2v1.1h-6.8v-1.1h0.5c0.8,0,1.2-0.1,1.2-0.4
		c0-0.1,0-0.1-0.1-0.2c0,0-0.1-0.1-0.3-0.3c0,0-0.1-0.1-0.1-0.2l-3.3-3.9l-2.1,1.6v1.7c0,0.8,0.1,1.3,0.3,1.5
		c0.2,0.2,0.7,0.3,1.3,0.3h0.5v1.1H196z"/>
	<path class="st0" d="M216.4,93.5h6.2v1.1H222c-0.5,0-0.8,0-0.9,0c-0.1,0-0.2,0.1-0.3,0.2s-0.1,0.2-0.1,0.4c0,0.2,0.1,0.6,0.3,1.2
		l3,6.9l2.7-6.6c0.3-0.8,0.5-1.3,0.5-1.5c0-0.2-0.1-0.3-0.2-0.4c-0.1-0.1-0.5-0.1-1-0.1h-0.6v-1.1h5.2v1.1h-0.3c-0.5,0-0.8,0-1,0.1
		c-0.2,0.1-0.3,0.2-0.4,0.4c-0.1,0.2-0.4,0.7-0.7,1.4l-4.7,10.9c-0.3,0.8-0.7,1.5-1.1,2.2c-0.4,0.7-0.9,1.2-1.6,1.5
		c-0.6,0.4-1.3,0.5-2.1,0.5c-0.9,0-1.6-0.2-2.1-0.6c-0.4-0.3-0.7-0.8-0.7-1.3c0-0.3,0.1-0.6,0.3-0.8c0.2-0.2,0.4-0.3,0.7-0.3
		c0.2,0,0.4,0,0.6,0.1c0.1,0,0.3,0.2,0.7,0.5c0.4,0.4,0.7,0.6,0.9,0.7s0.3,0.1,0.5,0.1c0.3,0,0.7-0.1,1-0.4c0.3-0.2,0.6-0.6,0.9-1
		c0.3-0.6,0.6-1.2,0.8-1.7l0.5-1.3l-4.2-9.4c-0.3-0.7-0.5-1.1-0.7-1.3s-0.4-0.4-0.6-0.4c-0.1,0-0.5-0.1-1-0.1V93.5z"/>
	<path class="st0" d="M236.8,96.9l1.8-4h0.9l0.4,0.8c0.7-0.3,1.6-0.5,2.5-0.5c1.4,0,2.4,0.3,3.2,0.8c0.8,0.5,1.2,1.3,1.2,2.2
		c0,1.5-1,2.5-2.9,3.2c2.3,0.3,3.5,1.4,3.5,3.1c0,1.1-0.5,2-1.4,2.6s-2.1,1-3.7,1c-2.4,0-4.3-1.1-6-3.2l0.8-0.7
		c1.4,1.7,3,2.6,4.8,2.6c1.1,0,1.8-0.2,2.3-0.7c0.5-0.5,0.7-1.1,0.7-1.8c0-0.6-0.3-1.1-0.8-1.5s-1.6-0.7-3.3-0.7h-0.7v-1.1h0.7
		c2.4,0,3.6-0.9,3.6-2.6c0-0.7-0.2-1.2-0.7-1.6c-0.5-0.3-1.1-0.5-1.9-0.5c-0.8,0-1.5,0.2-2.2,0.6c-0.7,0.4-1.3,1.2-1.9,2.5
		L236.8,96.9z"/>
	<path class="st0" d="M260.7,104.7v1.1h-6.4v-1.1h0.3c0.6,0,1-0.1,1.2-0.2s0.4-0.3,0.5-0.4c0.1-0.2,0.1-0.7,0.1-1.5v-5.9
		c0-0.8,0-1.3-0.1-1.5c-0.1-0.2-0.2-0.3-0.4-0.5c-0.2-0.1-0.6-0.2-1.2-0.2h-0.3v-1.1h6.4v1.1h-0.3c-0.6,0-1,0-1.2,0.1
		c-0.2,0.1-0.3,0.3-0.4,0.5c-0.1,0.2-0.1,0.7-0.1,1.3v2.4h6.6v-2.4c0-0.9-0.1-1.5-0.4-1.7c-0.3-0.2-0.7-0.3-1.4-0.3h-0.3v-1.1h6.4
		v1.1H269c-0.7,0-1.2,0.1-1.4,0.3s-0.3,0.7-0.3,1.5v6.5c0,0.8,0.1,1.3,0.3,1.5c0.2,0.2,0.7,0.3,1.4,0.3h0.4v1.1h-6.4v-1.1h0.3
		c0.7,0,1.1-0.1,1.4-0.3c0.3-0.2,0.4-0.7,0.4-1.7V100h-6.6v2.7c0,0.6,0,1,0.1,1.3c0.1,0.2,0.2,0.4,0.4,0.5c0.2,0.1,0.6,0.1,1.2,0.1
		H260.7z"/>
	<path class="st0" d="M276.4,105.8v-1.1h0.3c0.6,0,1-0.1,1.2-0.2s0.4-0.3,0.5-0.4c0.1-0.2,0.1-0.7,0.1-1.5v-5.9c0-0.8,0-1.3-0.1-1.5
		s-0.2-0.3-0.4-0.5c-0.2-0.1-0.6-0.2-1.2-0.2h-0.3v-1.1h6.4v1.1h-0.3c-0.6,0-1,0-1.2,0.1s-0.3,0.3-0.4,0.5s-0.1,0.7-0.1,1.3v5.3
		l6.6-5.6c0-0.5-0.1-0.9-0.3-1.2s-0.7-0.4-1.5-0.4h-0.3v-1.1h6.4v1.1h-0.4c-0.7,0-1.2,0.1-1.4,0.3s-0.3,0.7-0.3,1.5v6.5
		c0,0.8,0.1,1.3,0.3,1.5c0.2,0.2,0.7,0.3,1.4,0.3h0.4v1.1h-6.4v-1.1h0.3c0.7,0,1.1-0.1,1.4-0.3s0.4-0.7,0.4-1.7v-5.1l-6.6,5.6
		c0,0.5,0.1,0.8,0.2,1c0.1,0.2,0.3,0.3,0.5,0.4s0.5,0.1,1.1,0.1h0.3v1.1H276.4z"/>
	<path class="st0" d="M307.4,94.6v-1.1h6.4v1.1h-0.4c-0.7,0-1.2,0.1-1.4,0.3s-0.3,0.7-0.3,1.5v6.5c0,0.8,0.1,1.3,0.3,1.5
		c0.2,0.2,0.7,0.3,1.3,0.3h0.4l1.5,4.1l-1.1,0.4c-0.3-0.8-0.7-1.4-1.1-2c-0.5-0.5-1-0.9-1.7-1.1c-0.7-0.2-1.7-0.3-3.2-0.3h-9.4v-1.1
		h0.3c0.6,0,1-0.1,1.2-0.2c0.2-0.1,0.4-0.3,0.5-0.4c0.1-0.2,0.1-0.7,0.1-1.5v-5.9c0-0.8,0-1.3-0.1-1.5s-0.2-0.3-0.4-0.5
		c-0.2-0.1-0.6-0.2-1.2-0.2h-0.3v-1.1h6.4v1.1h-0.3c-0.6,0-1,0-1.2,0.1s-0.3,0.3-0.4,0.5c-0.1,0.2-0.1,0.7-0.1,1.3v7
		c0,0.5,0,0.7,0.1,0.8c0.1,0.1,0.4,0.1,0.8,0.1h4.7c0.5,0,0.7-0.1,0.8-0.2s0.1-0.4,0.1-0.8v-7c0-0.9-0.1-1.5-0.4-1.7
		s-0.7-0.3-1.4-0.3H307.4z"/>
	<path class="st0" d="M330.1,98.4l0-1.4c0-0.9-0.3-1.6-0.8-2c-0.5-0.4-1.3-0.6-2.2-0.6c-0.5,0-0.9,0.1-1.2,0.2s-0.6,0.3-0.9,0.5
		c-0.2,0.2-0.4,0.4-0.5,0.7c0,0.1-0.1,0.5-0.3,1.1c-0.2,0.8-0.6,1.1-1.2,1.1c-0.3,0-0.6-0.1-0.8-0.3s-0.3-0.5-0.3-0.9
		c0-0.6,0.2-1.1,0.6-1.6c0.4-0.5,1-1,1.9-1.3s1.9-0.5,3-0.5c1.1,0,2,0.2,2.8,0.5c0.8,0.3,1.3,0.8,1.7,1.4c0.3,0.4,0.4,1.2,0.4,2.4
		v4.9c0,0.7,0,1.1,0.1,1.4c0.1,0.4,0.3,0.6,0.5,0.8s0.5,0.3,0.9,0.3c0.4,0,0.9-0.1,1.4-0.3v1.1c-0.7,0.2-1.3,0.3-1.9,0.3
		c-0.6,0-1.1-0.1-1.5-0.3s-0.7-0.4-1-0.7c-0.3-0.3-0.4-0.7-0.5-1.2c-1,0.8-1.9,1.4-2.8,1.7c-0.8,0.3-1.7,0.5-2.5,0.5
		c-1.2,0-2.1-0.3-2.8-1c-0.7-0.6-1.1-1.4-1.1-2.2c0-0.5,0.1-1,0.4-1.5c0.3-0.5,0.7-0.9,1.2-1.2c0.5-0.4,1.4-0.7,2.6-0.9
		C326.4,98.9,328,98.6,330.1,98.4z M330.1,99.5c-2,0.3-3.2,0.5-3.6,0.6c-0.9,0.2-1.6,0.4-2,0.7s-0.7,0.5-0.9,0.8
		c-0.2,0.3-0.3,0.6-0.3,0.9s0.1,0.6,0.3,1s0.5,0.6,0.8,0.7c0.3,0.2,0.7,0.3,1.1,0.3c0.5,0,1.2-0.1,1.9-0.4s1.6-0.8,2.7-1.5
		L330.1,99.5z"/>
	<path class="st0" d="M356.4,105.8v-1.1h0.3c0.6,0,1,0,1.3-0.1c0.2-0.1,0.4-0.2,0.5-0.5c0.1-0.2,0.1-0.7,0.1-1.5v-5.9
		c0-0.8,0-1.3-0.1-1.5c-0.1-0.2-0.2-0.4-0.4-0.5c-0.2-0.1-0.7-0.2-1.3-0.2h-0.3v-1.1h7c1.7,0,2.9,0.1,3.6,0.2c0.7,0.2,1.4,0.5,1.8,1
		c0.5,0.5,0.7,1.1,0.7,1.8c0,0.7-0.3,1.3-0.8,1.8s-1.3,0.8-2.1,1c2.3,0.4,3.5,1.4,3.5,3c0,0.9-0.4,1.6-1.3,2.3
		c-0.8,0.7-2.5,1.1-5.1,1.1H356.4z M360.7,94.7v4.3h2.2c1.1,0,1.9-0.1,2.5-0.2c0.5-0.1,1-0.4,1.4-0.7c0.4-0.4,0.5-0.8,0.5-1.4
		c0-0.5-0.2-0.9-0.5-1.2c-0.3-0.3-0.7-0.5-1.1-0.6s-1.2-0.1-2.3-0.1H360.7z M360.7,100v3.6c0,0.5,0,0.7,0.1,0.8
		c0.1,0.1,0.4,0.2,0.8,0.2h1.4c1.2,0,2.1-0.1,2.7-0.2c0.6-0.1,1.1-0.4,1.4-0.8c0.4-0.4,0.6-0.9,0.6-1.4c0-0.5-0.2-0.9-0.6-1.3
		c-0.4-0.4-0.9-0.6-1.5-0.7c-0.6-0.1-1.5-0.2-2.7-0.2H360.7z"/>
	<path class="st0" d="M386.4,98.4l0-1.4c0-0.9-0.3-1.6-0.8-2s-1.3-0.6-2.2-0.6c-0.5,0-0.9,0.1-1.2,0.2c-0.4,0.1-0.6,0.3-0.9,0.5
		s-0.4,0.4-0.5,0.7c0,0.1-0.1,0.5-0.3,1.1c-0.2,0.8-0.6,1.1-1.2,1.1c-0.3,0-0.6-0.1-0.8-0.3c-0.2-0.2-0.3-0.5-0.3-0.9
		c0-0.6,0.2-1.1,0.6-1.6s1-1,1.9-1.3c0.8-0.4,1.9-0.5,3-0.5c1.1,0,2,0.2,2.8,0.5s1.3,0.8,1.7,1.4c0.3,0.4,0.4,1.2,0.4,2.4v4.9
		c0,0.7,0,1.1,0.1,1.4c0.1,0.4,0.3,0.6,0.5,0.8c0.2,0.2,0.5,0.3,0.9,0.3c0.4,0,0.9-0.1,1.4-0.3v1.1c-0.7,0.2-1.3,0.3-1.9,0.3
		c-0.6,0-1.1-0.1-1.5-0.3c-0.4-0.2-0.7-0.4-1-0.7s-0.4-0.7-0.5-1.2c-1,0.8-1.9,1.4-2.8,1.7s-1.7,0.5-2.5,0.5c-1.2,0-2.1-0.3-2.8-1
		s-1.1-1.4-1.1-2.2c0-0.5,0.1-1,0.4-1.5s0.7-0.9,1.2-1.2c0.5-0.4,1.4-0.7,2.6-0.9S384.3,98.6,386.4,98.4z M386.4,99.5
		c-2,0.3-3.2,0.5-3.6,0.6c-0.9,0.2-1.6,0.4-2,0.7c-0.4,0.3-0.7,0.5-0.9,0.8s-0.3,0.6-0.3,0.9s0.1,0.6,0.3,1c0.2,0.3,0.5,0.6,0.8,0.7
		s0.7,0.3,1.1,0.3c0.5,0,1.2-0.1,1.9-0.4c0.7-0.3,1.6-0.8,2.7-1.5L386.4,99.5z"/>
	<path class="st0" d="M413.8,94.6v-1.1h6.3v1.1h-0.4c-0.7,0-1.2,0.1-1.4,0.3s-0.3,0.7-0.3,1.5v6.5c0,0.8,0.1,1.3,0.3,1.5
		c0.2,0.2,0.7,0.3,1.4,0.3h0.4v1.1h-22.4v-1.1h0.3c0.6,0,1-0.1,1.2-0.2s0.4-0.3,0.5-0.4c0.1-0.2,0.1-0.7,0.1-1.5v-5.9
		c0-0.8,0-1.3-0.1-1.5s-0.2-0.3-0.4-0.5c-0.2-0.1-0.6-0.2-1.2-0.2h-0.3v-1.1h6.3v1.1h-0.3c-0.7,0-1.1,0.1-1.4,0.3s-0.3,0.8-0.3,1.6
		v7c0,0.5,0,0.7,0.1,0.8c0.1,0.1,0.4,0.1,0.8,0.1h3.9c0.5,0,0.7-0.1,0.8-0.2c0.1-0.1,0.1-0.4,0.1-0.8v-7c0-0.8-0.1-1.3-0.3-1.6
		s-0.7-0.4-1.4-0.4h-0.3v-1.1h6.2v1.1h-0.3c-0.7,0-1.2,0.1-1.4,0.3c-0.2,0.2-0.3,0.8-0.3,1.6v7c0,0.5,0,0.7,0.1,0.8
		c0.1,0.1,0.4,0.1,0.8,0.1h3.9c0.5,0,0.7-0.1,0.8-0.2c0.1-0.1,0.1-0.4,0.1-0.8v-7c0-0.8-0.1-1.3-0.3-1.6s-0.7-0.4-1.4-0.4H413.8z"/>
	<path class="st0" d="M427.2,105.8v-1.1h0.3c0.6,0,1-0.1,1.2-0.2s0.4-0.3,0.5-0.4c0.1-0.2,0.1-0.7,0.1-1.5v-5.9c0-0.8,0-1.3-0.1-1.5
		s-0.2-0.3-0.4-0.5c-0.2-0.1-0.6-0.2-1.2-0.2h-0.3v-1.1h6.4v1.1h-0.3c-0.6,0-1,0-1.2,0.1s-0.3,0.3-0.4,0.5s-0.1,0.7-0.1,1.3v5.3
		l6.6-5.6c0-0.5-0.1-0.9-0.3-1.2s-0.7-0.4-1.5-0.4h-0.3v-1.1h6.4v1.1h-0.4c-0.7,0-1.2,0.1-1.4,0.3s-0.3,0.7-0.3,1.5v6.5
		c0,0.8,0.1,1.3,0.3,1.5c0.2,0.2,0.7,0.3,1.4,0.3h0.4v1.1h-6.4v-1.1h0.3c0.7,0,1.1-0.1,1.4-0.3s0.4-0.7,0.4-1.7v-5.1l-6.6,5.6
		c0,0.5,0.1,0.8,0.2,1c0.1,0.2,0.3,0.3,0.5,0.4s0.5,0.1,1.1,0.1h0.3v1.1H427.2z"/>
	<path class="st0" d="M448.8,93.5h6.4v1.1h-0.4c-0.3,0-0.5,0-0.7,0.1c-0.1,0-0.2,0.1-0.3,0.2c-0.1,0.1-0.1,0.2-0.1,0.3
		c0,0.2,0.2,0.5,0.5,0.9l1.8,2.3l2.1-2.3c0.4-0.4,0.6-0.7,0.6-1c0-0.2-0.1-0.3-0.2-0.4c-0.1-0.1-0.4-0.1-0.9-0.1h-0.5v-1.1h5.4v1.1
		c-0.5,0-1,0.1-1.4,0.3c-0.4,0.2-0.8,0.6-1.4,1.1l-2.9,3l3.6,4.1l0.1,0.2c0.4,0.5,0.8,0.8,1.2,1.1c0.2,0.2,0.6,0.2,1.1,0.3v1.1h-6.2
		v-1.1h0.5c0.4,0,0.7,0,0.8-0.1c0.2-0.1,0.3-0.2,0.3-0.4c0-0.2-0.2-0.5-0.6-1l-2.3-2.8l-2.6,2.8l-0.3,0.3l-0.1,0.2
		c-0.2,0.2-0.3,0.4-0.3,0.6c0,0.2,0.1,0.3,0.2,0.4c0.1,0.1,0.4,0.1,0.9,0.1h0.5v1.1h-5.3v-1.1c0.4,0,0.7-0.1,1-0.1
		c0.2-0.1,0.5-0.2,0.7-0.4c0.4-0.3,0.7-0.6,0.8-0.7l3.7-3.8l-3.2-3.6c-0.4-0.5-0.7-0.8-0.9-1c-0.2-0.2-0.5-0.3-0.7-0.4
		c-0.2-0.1-0.5-0.1-0.9-0.1V93.5z"/>
	<path class="st0" d="M484.3,105.8v-1.1h0.3c0.6,0,1-0.1,1.2-0.2s0.4-0.3,0.4-0.4c0.1-0.2,0.1-0.7,0.1-1.5v-5.9c0-0.8,0-1.3-0.1-1.5
		c-0.1-0.2-0.2-0.3-0.4-0.5c-0.2-0.1-0.6-0.2-1.2-0.2h-0.3v-1.1h6.4v1.1h-0.3c-0.6,0-1,0-1.2,0.1s-0.3,0.3-0.4,0.5
		c-0.1,0.2-0.1,0.7-0.1,1.3v5.3l6.6-5.6c0-0.5-0.1-0.9-0.3-1.2s-0.7-0.4-1.5-0.4H493v-1.1h6.4v1.1h-0.4c-0.7,0-1.2,0.1-1.4,0.3
		c-0.2,0.2-0.3,0.7-0.3,1.5v6.5c0,0.8,0.1,1.3,0.3,1.5c0.2,0.2,0.7,0.3,1.4,0.3h0.4v1.1H493v-1.1h0.3c0.7,0,1.1-0.1,1.4-0.3
		c0.3-0.2,0.4-0.7,0.4-1.7v-5.1l-6.6,5.6c0,0.5,0.1,0.8,0.2,1c0.1,0.2,0.3,0.3,0.5,0.4s0.5,0.1,1.1,0.1h0.3v1.1H484.3z"/>
	<path class="st0" d="M505,108.8l1.3-4.1c0.5,0,0.9-0.1,1.2-0.2c0.3-0.1,0.5-0.4,0.8-0.7c0.3-0.4,0.5-0.8,0.6-1.2l1.8-5.9
		c0.1-0.3,0.1-0.6,0.1-0.8c0-0.4-0.1-0.8-0.4-1c-0.3-0.2-0.8-0.3-1.5-0.3h-0.3v-1.1h11.8v1.1h-0.5c-0.7,0-1.2,0.1-1.4,0.3
		c-0.2,0.2-0.3,0.7-0.3,1.5v6.5c0,0.8,0.1,1.3,0.3,1.5s0.7,0.3,1.4,0.3h0.5l1.1,4.1l-1.1,0.4c-0.5-1.4-1.2-2.3-2-2.7
		c-0.9-0.5-2.1-0.7-3.5-0.7h-3.1c-1.8,0-3.1,0.3-3.9,1c-0.8,0.6-1.4,1.5-1.7,2.5L505,108.8z M512.6,94.8l-2.6,8.8
		c-0.1,0.2-0.1,0.3-0.1,0.4c0,0.2,0.1,0.4,0.2,0.5c0.1,0.1,0.4,0.1,0.9,0.1h4.1c0.5,0,0.7,0,0.8-0.1c0.1-0.1,0.1-0.4,0.1-0.8v-8.8
		H512.6z"/>
	<path class="st0" d="M538.3,102.5l0.8,0.7c-0.6,0.7-1.2,1.3-1.8,1.8s-1.1,0.7-1.6,0.9c-0.5,0.2-1.1,0.3-1.8,0.3
		c-1.2,0-2.3-0.3-3.2-0.8c-1-0.6-1.8-1.3-2.3-2.3s-0.8-2-0.8-3.3c0-1.3,0.3-2.5,0.8-3.4c0.5-0.9,1.2-1.7,2.2-2.2
		c0.9-0.5,2-0.8,3.2-0.8c0.9,0,1.7,0.1,2.4,0.4c0.7,0.3,1.2,0.7,1.7,1.3c0.5,0.6,0.8,1.2,1,2c0.1,0.4,0.2,1,0.2,1.7h-9
		c0,0.4,0,0.7,0,0.9c0,1.1,0.2,2,0.6,2.9c0.4,0.8,0.9,1.5,1.5,1.8c0.6,0.4,1.3,0.6,2.1,0.6c0.7,0,1.3-0.2,1.9-0.5
		C536.7,104,537.5,103.4,538.3,102.5z M536.7,97.4c-0.1-0.8-0.3-1.4-0.5-1.7c-0.2-0.4-0.6-0.7-1-0.9c-0.4-0.2-0.9-0.3-1.4-0.3
		s-1,0.1-1.5,0.3c-0.5,0.2-0.9,0.5-1.2,0.9s-0.6,1-0.8,1.7H536.7z"/>
	<path class="st0" d="M546.2,105.8v-1.1h0.3c0.6,0,1-0.1,1.2-0.2s0.4-0.3,0.5-0.4c0.1-0.2,0.1-0.7,0.1-1.5v-5.9c0-0.8,0-1.3-0.1-1.5
		c-0.1-0.2-0.2-0.3-0.4-0.5c-0.2-0.1-0.6-0.2-1.2-0.2h-0.3v-1.1h6.4v1.1h-0.3c-0.6,0-1,0-1.2,0.1c-0.2,0.1-0.3,0.3-0.4,0.5
		c-0.1,0.2-0.1,0.7-0.1,1.3v5.3l6.6-5.6c0-0.5-0.1-0.9-0.3-1.2s-0.7-0.4-1.5-0.4h-0.3v-1.1h6.4v1.1h-0.4c-0.7,0-1.2,0.1-1.4,0.3
		s-0.3,0.7-0.3,1.5v6.5c0,0.8,0.1,1.3,0.3,1.5c0.2,0.2,0.7,0.3,1.4,0.3h0.4v1.1h-6.4v-1.1h0.3c0.7,0,1.1-0.1,1.4-0.3
		c0.3-0.2,0.4-0.7,0.4-1.7v-5.1l-6.6,5.6c0,0.5,0.1,0.8,0.2,1c0.1,0.2,0.3,0.3,0.5,0.4s0.5,0.1,1.1,0.1h0.3v1.1H546.2z M553.7,92.1
		c-1.3,0-2.5-0.3-3.4-0.9c-1-0.6-1.4-1.2-1.4-1.8c0-0.3,0.1-0.6,0.3-0.7c0.2-0.2,0.5-0.3,0.7-0.3c0.4,0,0.8,0.3,1.2,1
		c0.3,0.6,0.6,1,1,1.3c0.4,0.3,0.9,0.4,1.6,0.4c0.6,0,1.2-0.1,1.6-0.4c0.4-0.3,0.7-0.7,1-1.3c0.3-0.7,0.7-1,1.2-1
		c0.3,0,0.5,0.1,0.7,0.3s0.3,0.4,0.3,0.8c0,0.6-0.5,1.2-1.4,1.8C556.2,91.8,555,92.1,553.7,92.1z"/>
	<path class="st0" d="M207.4,133.4l0.8,0.7c-1.6,2.1-3.5,3.2-5.7,3.2c-1.7,0-3.2-0.6-4.4-1.9s-1.8-2.8-1.8-4.6
		c0-1.2,0.3-2.3,0.8-3.3s1.3-1.7,2.3-2.3c1-0.5,2.1-0.8,3.4-0.8c1.5,0,2.7,0.4,3.6,1.1c1,0.7,1.5,1.4,1.5,2.2c0,0.4-0.1,0.7-0.3,0.9
		s-0.5,0.3-0.8,0.3c-0.2,0-0.3,0-0.4-0.1c-0.1-0.1-0.3-0.2-0.4-0.4c-0.1-0.1-0.2-0.3-0.4-0.7c-0.2-0.5-0.4-0.8-0.5-1
		c-0.3-0.3-0.6-0.6-1-0.8c-0.4-0.2-0.8-0.3-1.3-0.3c-0.7,0-1.4,0.2-2,0.6s-1.1,1-1.5,1.8s-0.5,1.7-0.5,2.8c0,1.7,0.4,3,1.3,4
		c0.8,0.8,1.7,1.3,2.8,1.3c0.5,0,1-0.1,1.5-0.2s1-0.4,1.4-0.7C206.1,134.8,206.6,134.2,207.4,133.4z"/>
	<path class="st0" d="M241.4,133.7l0.8,0.7c-0.6,0.7-1.2,1.3-1.8,1.8c-0.6,0.4-1.1,0.7-1.6,0.9s-1.1,0.3-1.8,0.3
		c-1.2,0-2.3-0.3-3.2-0.8c-1-0.6-1.8-1.3-2.3-2.3s-0.8-2-0.8-3.3c0-1.3,0.3-2.5,0.8-3.4s1.2-1.7,2.2-2.2c0.9-0.5,2-0.8,3.2-0.8
		c0.9,0,1.7,0.1,2.4,0.4s1.2,0.7,1.7,1.3s0.8,1.2,1,2c0.1,0.4,0.2,1,0.2,1.7h-9c0,0.4,0,0.7,0,0.9c0,1.1,0.2,2,0.6,2.9
		s0.9,1.5,1.5,1.8c0.6,0.4,1.3,0.6,2.1,0.6c0.7,0,1.3-0.2,1.9-0.5S240.5,134.6,241.4,133.7z M239.8,128.6c-0.1-0.8-0.3-1.4-0.5-1.7
		c-0.2-0.4-0.6-0.7-1-0.9c-0.4-0.2-0.9-0.3-1.4-0.3s-1,0.1-1.5,0.3s-0.9,0.5-1.2,0.9c-0.3,0.4-0.6,1-0.8,1.7H239.8z"/>
	<path class="st0" d="M264.9,137v-1.1h0.3c0.6,0,1,0,1.3-0.1c0.2-0.1,0.4-0.2,0.5-0.5c0.1-0.2,0.1-0.7,0.1-1.5v-5.9
		c0-0.8,0-1.3-0.1-1.5c-0.1-0.2-0.2-0.4-0.4-0.5c-0.2-0.1-0.7-0.2-1.3-0.2h-0.3v-1.1h7c1.7,0,2.9,0.1,3.6,0.2c0.7,0.2,1.4,0.5,1.8,1
		c0.5,0.5,0.7,1.1,0.7,1.8c0,0.7-0.3,1.3-0.8,1.8s-1.3,0.8-2.1,1c2.3,0.4,3.5,1.4,3.5,3c0,0.9-0.4,1.6-1.3,2.3
		c-0.8,0.7-2.5,1.1-5.1,1.1H264.9z M269.2,125.9v4.3h2.2c1.1,0,1.9-0.1,2.5-0.2c0.5-0.1,1-0.4,1.4-0.7c0.4-0.4,0.5-0.8,0.5-1.4
		c0-0.5-0.2-0.9-0.5-1.2c-0.3-0.3-0.7-0.5-1.1-0.6s-1.2-0.1-2.3-0.1H269.2z M269.2,131.2v3.6c0,0.5,0,0.7,0.1,0.8
		c0.1,0.1,0.4,0.2,0.8,0.2h1.4c1.2,0,2.1-0.1,2.7-0.2c0.6-0.1,1.1-0.4,1.4-0.8c0.4-0.4,0.6-0.9,0.6-1.4c0-0.5-0.2-0.9-0.6-1.3
		c-0.4-0.4-0.9-0.6-1.5-0.7c-0.6-0.1-1.5-0.2-2.7-0.2H269.2z"/>
	<path class="st0" d="M310.6,129.6l0-1.4c0-0.9-0.3-1.6-0.8-2c-0.5-0.4-1.3-0.6-2.2-0.6c-0.5,0-0.9,0.1-1.2,0.2
		c-0.4,0.1-0.6,0.3-0.9,0.5c-0.2,0.2-0.4,0.4-0.5,0.7c0,0.1-0.1,0.5-0.3,1.1c-0.2,0.8-0.6,1.1-1.2,1.1c-0.3,0-0.6-0.1-0.8-0.3
		s-0.3-0.5-0.3-0.9c0-0.6,0.2-1.1,0.6-1.6c0.4-0.5,1-1,1.9-1.3c0.9-0.4,1.9-0.5,3-0.5c1.1,0,2,0.2,2.8,0.5c0.8,0.3,1.3,0.8,1.7,1.4
		c0.3,0.4,0.4,1.2,0.4,2.4v4.9c0,0.7,0,1.1,0.1,1.4c0.1,0.4,0.3,0.6,0.5,0.8s0.5,0.3,0.9,0.3c0.4,0,0.9-0.1,1.4-0.3v1.1
		c-0.7,0.2-1.3,0.3-1.9,0.3c-0.6,0-1.1-0.1-1.5-0.3s-0.7-0.4-1-0.7c-0.3-0.3-0.4-0.7-0.5-1.2c-1,0.8-1.9,1.4-2.8,1.7
		c-0.8,0.3-1.7,0.5-2.5,0.5c-1.2,0-2.1-0.3-2.8-1c-0.7-0.6-1.1-1.4-1.1-2.2c0-0.5,0.1-1,0.4-1.5c0.3-0.5,0.7-0.9,1.2-1.2
		c0.5-0.4,1.4-0.7,2.6-0.9C306.9,130.1,308.5,129.8,310.6,129.6z M310.6,130.7c-2,0.3-3.2,0.5-3.6,0.6c-0.9,0.2-1.6,0.4-2,0.7
		s-0.7,0.5-0.9,0.8c-0.2,0.3-0.3,0.6-0.3,0.9s0.1,0.6,0.3,1s0.5,0.6,0.8,0.7s0.7,0.3,1.1,0.3c0.6,0,1.2-0.1,1.9-0.4
		c0.7-0.3,1.6-0.8,2.7-1.5V130.7z"/>
	<path class="st0" d="M348.6,133.4l0.8,0.7c-1.6,2.1-3.5,3.2-5.7,3.2c-1.7,0-3.2-0.6-4.4-1.9s-1.8-2.8-1.8-4.6
		c0-1.2,0.3-2.3,0.8-3.3s1.3-1.7,2.3-2.3s2.1-0.8,3.4-0.8c1.5,0,2.7,0.4,3.6,1.1c1,0.7,1.5,1.4,1.5,2.2c0,0.4-0.1,0.7-0.3,0.9
		s-0.5,0.3-0.8,0.3c-0.2,0-0.3,0-0.4-0.1c-0.1-0.1-0.3-0.2-0.4-0.4c-0.1-0.1-0.2-0.3-0.4-0.7c-0.2-0.5-0.4-0.8-0.5-1
		c-0.3-0.3-0.6-0.6-1-0.8s-0.8-0.3-1.3-0.3c-0.7,0-1.4,0.2-2,0.6c-0.6,0.4-1.1,1-1.5,1.8s-0.5,1.7-0.5,2.8c0,1.7,0.4,3,1.3,4
		c0.8,0.8,1.7,1.3,2.8,1.3c0.5,0,1-0.1,1.5-0.2s1-0.4,1.4-0.7C347.3,134.8,347.9,134.2,348.6,133.4z"/>
	<path class="st0" d="M376.7,126H376c-1.1,0-1.9,0.2-2.5,0.7s-1.1,1.2-1.6,2.3l-1.1-0.5l2-4.3h0.9l0.1,0.6h8.2l0.1-0.6h0.9l2,4.3
		l-1.1,0.5c-0.5-1.1-1.1-1.9-1.7-2.3s-1.4-0.7-2.5-0.7h-0.7v7.8c0,0.8,0,1.3,0.1,1.5c0.1,0.2,0.2,0.3,0.4,0.5
		c0.2,0.1,0.7,0.2,1.3,0.2h0.3v1.1h-6.5v-1.1h0.3c0.6,0,1,0,1.3-0.1c0.2-0.1,0.4-0.2,0.5-0.5c0.1-0.2,0.1-0.7,0.1-1.5V126z"/>
	<path class="st0" d="M412.9,124.4c1.2,0,2.3,0.3,3.2,0.8s1.6,1.3,2.2,2.3c0.5,1,0.8,2.1,0.8,3.4s-0.3,2.4-0.8,3.4s-1.3,1.7-2.2,2.3
		s-2,0.8-3.3,0.8c-2,0-3.6-0.6-4.6-1.9s-1.5-2.8-1.5-4.5c0-1.3,0.3-2.4,0.8-3.4s1.3-1.7,2.2-2.3S411.7,124.4,412.9,124.4z
		 M412.8,125.6c-1,0-1.8,0.4-2.5,1.1c-0.8,0.9-1.3,2.3-1.3,4.1c0,1.7,0.4,3.1,1.1,4c0.7,0.8,1.5,1.2,2.7,1.2c0.7,0,1.4-0.2,1.9-0.6
		s1-1,1.4-1.8c0.3-0.8,0.5-1.8,0.5-2.9c0-1.1-0.2-2.1-0.6-3c-0.3-0.7-0.7-1.2-1.3-1.6S413.5,125.6,412.8,125.6z"/>
	<path class="st0" d="M448.2,135.9v1.1h-6.4v-1.1h0.3c0.6,0,1-0.1,1.2-0.2s0.4-0.3,0.5-0.4c0.1-0.2,0.1-0.7,0.1-1.5v-5.9
		c0-0.8,0-1.3-0.1-1.5s-0.2-0.3-0.4-0.5c-0.2-0.1-0.6-0.2-1.2-0.2h-0.3v-1.1H457v1.1h-0.4c-0.7,0-1.2,0.1-1.4,0.3s-0.3,0.7-0.3,1.5
		v6.5c0,0.8,0.1,1.3,0.3,1.5c0.2,0.2,0.7,0.3,1.4,0.3h0.4v1.1h-6.4v-1.1h0.3c0.7,0,1.1-0.1,1.4-0.3c0.3-0.2,0.4-0.7,0.4-1.7v-8h-6.6
		v8c0,0.6,0,1,0.1,1.3c0.1,0.2,0.2,0.4,0.4,0.5s0.6,0.1,1.2,0.1H448.2z"/>
	<path class="st0" d="M486.1,124.4c1.2,0,2.3,0.3,3.2,0.8s1.6,1.3,2.2,2.3c0.5,1,0.8,2.1,0.8,3.4s-0.3,2.4-0.8,3.4s-1.3,1.7-2.2,2.3
		c-0.9,0.5-2,0.8-3.3,0.8c-2,0-3.6-0.6-4.6-1.9c-1-1.3-1.5-2.8-1.5-4.5c0-1.3,0.3-2.4,0.8-3.4s1.3-1.7,2.2-2.3
		S484.9,124.4,486.1,124.4z M486,125.6c-1,0-1.8,0.4-2.5,1.1c-0.8,0.9-1.3,2.3-1.3,4.1c0,1.7,0.4,3.1,1.1,4c0.7,0.8,1.5,1.2,2.7,1.2
		c0.7,0,1.4-0.2,1.9-0.6s1-1,1.4-1.8c0.3-0.8,0.5-1.8,0.5-2.9c0-1.1-0.2-2.1-0.6-3c-0.3-0.7-0.7-1.2-1.3-1.6S486.7,125.6,486,125.6z
		"/>
	<path class="st0" d="M514,137v-1.1c0.5,0,0.9-0.1,1.2-0.3c0.2-0.2,0.5-0.7,0.8-1.4l4.1-9.5h1.5l4.1,9.7c0.2,0.5,0.4,0.8,0.7,1.1
		s0.7,0.4,1.2,0.4v1.1h-5.8v-1.1h0.4c0.5,0,0.9,0,1.1-0.1c0.2-0.1,0.3-0.3,0.3-0.5c0-0.2-0.1-0.6-0.3-1l-2.9-7.2l-2.8,7.2
		c-0.2,0.5-0.3,0.8-0.3,1c0,0.5,0.4,0.7,1.2,0.7h0.6v1.1H514z"/>
	<path class="st0" d="M549.3,137v-1.1h0.3c0.6,0,1,0,1.3-0.1c0.2-0.1,0.4-0.2,0.5-0.5c0.1-0.2,0.1-0.7,0.1-1.5v-5.9
		c0-0.8,0-1.3-0.1-1.5c-0.1-0.2-0.2-0.4-0.4-0.5c-0.2-0.1-0.7-0.2-1.3-0.2h-0.3v-1.1h6.8v1.1h-0.3c-0.8,0-1.3,0-1.5,0.1
		c-0.2,0.1-0.4,0.2-0.5,0.5c-0.1,0.2-0.2,0.7-0.2,1.4v2.3h1.7c1.6,0,2.8,0.1,3.6,0.2s1.5,0.5,2,1s0.8,1.2,0.8,2c0,2.4-2,3.7-5.9,3.7
		H549.3z M553.6,131.2v3.6c0,0.5,0,0.7,0.1,0.8c0.1,0.1,0.3,0.1,0.8,0.1h1.2c2.4,0,3.6-0.8,3.6-2.3c0-0.5-0.2-1-0.5-1.4
		c-0.3-0.4-0.7-0.6-1.2-0.7s-1.1-0.2-1.9-0.2H553.6z"/>
</g>
<g>
	<g>
		<path class="st0" d="M195.4,118.7c12.2,0,24.3,0,36.5,0c29.2,0,58.4,0,87.6,0c35.3,0,70.6,0,106,0c30.6,0,61.1,0,91.7,0
			c10.1,0,20.2,0,30.4,0c4.7,0,9.7,0.5,14.3,0c0.2,0,0.4,0,0.7,0c3,0,2.2-4.8-0.4-4.8c-12.2,0-24.3,0-36.5,0c-29.2,0-58.4,0-87.6,0
			c-35.3,0-70.6,0-106,0c-30.6,0-61.1,0-91.7,0c-10.1,0-20.2,0-30.4,0c-4.7,0-9.7-0.5-14.3,0c-0.2,0-0.4,0-0.7,0
			C192,113.9,192.8,118.7,195.4,118.7L195.4,118.7z"/>
	</g>
</g>
</svg>
